<?xml version="1.0" encoding="UTF-8" standalone="no"?>
<svg
   xmlns:dc="http://purl.org/dc/elements/1.1/"
   xmlns:cc="http://creativecommons.org/ns#"
   xmlns:rdf="http://www.w3.org/1999/02/22-rdf-syntax-ns#"
   xmlns:svg="http://www.w3.org/2000/svg"
   xmlns="http://www.w3.org/2000/svg"
   id="svg3799"
   version="1.1"
   preserveAspectRatio="xMinYMin meet"
   viewBox="0 0 1200 400"
   height="400px"
   width="1200px">
  <metadata
     id="metadata3805">
    <rdf:RDF>
      <cc:Work
         rdf:about="">
        <dc:format>image/svg+xml</dc:format>
        <dc:type
           rdf:resource="http://purl.org/dc/dcmitype/StillImage" />
        <dc:title></dc:title>
      </cc:Work>
    </rdf:RDF>
  </metadata>
  <defs
     id="defs3803" />
  <path
     id="svgEditorBackground"
     d="M 0,0 H 1200 V 400 H 0 Z"
     style="fill:none;stroke:none" />
  <path
     id="e1_circle"
     d="M 385,205 A 180,180 0 0 1 205,385 180,180 0 0 1 25,205 180,180 0 0 1 205,25 180,180 0 0 1 385,205 Z"
     style="fill:#0099ff" />
  <path
     id="e2_circle"
     d="M 331,205 A 126,126 0 0 1 205,331 126,126 0 0 1 79,205 126,126 0 0 1 205,79 126,126 0 0 1 331,205 Z"
     style="fill:#ffffff" />
  <g
     id="e3_texte"
     style="font-style:normal;font-variant:normal;font-weight:normal;font-stretch:normal;font-size:150px;font-family:sans-serif;-inkscape-font-specification:'sans-serif, Normal';font-variant-ligatures:normal;font-variant-caps:normal;font-variant-numeric:normal;font-feature-settings:normal;text-align:start;writing-mode:lr-tb;text-anchor:start;fill:#000000"
     aria-label="Shuddhi">
    <path
       id="path3818"
       style="font-style:normal;font-variant:normal;font-weight:normal;font-stretch:normal;font-size:150px;font-family:'Bitstream Charter';-inkscape-font-specification:'Bitstream Charter, Normal';font-variant-ligatures:normal;font-variant-caps:normal;font-variant-numeric:normal;font-feature-settings:normal;text-align:start;writing-mode:lr-tb;text-anchor:start"
       d="m 412,196 c 6.9,3 16.2,4.8 27,4.8 24,0 38.85,-12.45 38.85,-30.15 0,-6.6 -2.25,-12.15 -6.6,-16.5 -6.9,-6.75 -15,-9.15 -22.65,-12.3 -13.8,-5.85 -21,-9.6 -21,-19.65 0,-10.95 7.65,-18.15 20.4,-18.15 5.25,0 9.75,1.05 13.5,3.15 l 2.25,2.55 L 466,124 h 7.8 v -23.25 c -8.85,-2.85 -17.25,-4.2 -25.5,-4.2 -21.3,0 -34.65,11.85 -34.65,28.8 0,14.55 8.7,20.1 25.35,27.3 16.35,7.05 25.05,9.75 25.05,22.2 0,10.5 -8.1,18 -22.65,18 -6.75,0 -12.45,-1.2 -16.8,-3.45 l -1.95,-2.55 -1.8,-17.25 H 412 Z" />
    <path
       id="path3820"
       style="font-style:normal;font-variant:normal;font-weight:normal;font-stretch:normal;font-size:150px;font-family:'Bitstream Charter';-inkscape-font-specification:'Bitstream Charter, Normal';font-variant-ligatures:normal;font-variant-caps:normal;font-variant-numeric:normal;font-feature-settings:normal;text-align:start;writing-mode:lr-tb;text-anchor:start"
       d="m 507.64609,88.6 -18.3,5.4 v 4.65 h 11.55 v 91.8 l -2.55,2.4 -8.1,0.75 v 5.4 h 32.85 v -5.4 l -7.05,-0.75 -2.7,-2.4 V 140.2 c 6.45,-3.3 12,-4.95 16.8,-4.95 11.1,0 15.15,4.5 15.15,15.45 v 39.75 l -2.55,2.4 -7.05,0.75 v 5.4 h 32.7 v -5.4 l -7.95,-0.75 -2.7,-2.4 v -42.3 c 0,-15 -7.05,-22.8 -20.1,-22.8 -6.45,0 -14.25,3.45 -24.3,9 V 88.6 Z" />
    <path
       id="path3822"
       style="font-style:normal;font-variant:normal;font-weight:normal;font-stretch:normal;font-size:150px;font-family:'Bitstream Charter';-inkscape-font-specification:'Bitstream Charter, Normal';font-variant-ligatures:normal;font-variant-caps:normal;font-variant-numeric:normal;font-feature-settings:normal;text-align:start;writing-mode:lr-tb;text-anchor:start"
       d="m 592.46406,125.35 -17.4,5.55 v 4.65 h 10.65 v 42 c 0,15 7.2,22.95 20.1,22.95 7.35,0 15.3,-3.45 24.3,-9.9 v 8.4 h 22.2 v -5.4 l -7.05,-0.75 -2.7,-2.4 v -65.1 h -5.7 l -17.4,5.55 v 4.65 h 10.65 v 50.85 c -6.15,3 -11.85,4.5 -17.4,4.5 -10.05,0 -14.55,-5.1 -14.55,-15.9 v -49.65 z" />
    <path
       id="path3824"
       style="font-style:normal;font-variant:normal;font-weight:normal;font-stretch:normal;font-size:150px;font-family:'Bitstream Charter';-inkscape-font-specification:'Bitstream Charter, Normal';font-variant-ligatures:normal;font-variant-caps:normal;font-variant-numeric:normal;font-feature-settings:normal;text-align:start;writing-mode:lr-tb;text-anchor:start"
       d="m 713.86797,98.65 v 28.2 c -4.65,-1.05 -9.15,-1.65 -13.35,-1.65 -22.8,0 -38.7,16.05 -38.7,40.05 0,21 12.6,35.1 28.95,35.1 8.25,0 15.45,-3 23.1,-9.15 v 7.8 h 22.2 v -5.4 l -7.2,-0.75 -2.55,-2.4 V 88.6 h -5.7 l -18.3,5.4 v 4.65 z m 0,87 c -5.55,3.45 -10.95,5.25 -16.35,5.25 -13.5,0 -22.5,-10.65 -22.5,-28.2 0,-18.75 10.5,-30.9 25.65,-30.9 3.6,0 8.1,0.9 13.2,2.4 z" />
    <path
       id="path3826"
       style="font-style:normal;font-variant:normal;font-weight:normal;font-stretch:normal;font-size:150px;font-family:'Bitstream Charter';-inkscape-font-specification:'Bitstream Charter, Normal';font-variant-ligatures:normal;font-variant-caps:normal;font-variant-numeric:normal;font-feature-settings:normal;text-align:start;writing-mode:lr-tb;text-anchor:start"
       d="m 798.53594,98.65 v 28.2 c -4.65,-1.05 -9.15,-1.65 -13.35,-1.65 -22.8,0 -38.7,16.05 -38.7,40.05 0,21 12.6,35.1 28.95,35.1 8.25,0 15.45,-3 23.1,-9.15 v 7.8 h 22.2 v -5.4 l -7.2,-0.75 -2.55,-2.4 V 88.6 h -5.7 l -18.3,5.4 v 4.65 z m 0,87 c -5.55,3.45 -10.95,5.25 -16.35,5.25 -13.5,0 -22.5,-10.65 -22.5,-28.2 0,-18.75 10.5,-30.9 25.65,-30.9 3.6,0 8.1,0.9 13.2,2.4 z" />
    <path
       id="path3828"
       style="font-style:normal;font-variant:normal;font-weight:normal;font-stretch:normal;font-size:150px;font-family:'Bitstream Charter';-inkscape-font-specification:'Bitstream Charter, Normal';font-variant-ligatures:normal;font-variant-caps:normal;font-variant-numeric:normal;font-feature-settings:normal;text-align:start;writing-mode:lr-tb;text-anchor:start"
       d="m 846.90391,88.6 -18.3,5.4 v 4.65 h 11.55 v 91.8 l -2.55,2.4 -8.1,0.75 v 5.4 h 32.85 v -5.4 l -7.05,-0.75 -2.7,-2.4 V 140.2 c 6.45,-3.3 12,-4.95 16.8,-4.95 11.1,0 15.15,4.5 15.15,15.45 v 39.75 l -2.55,2.4 -7.05,0.75 v 5.4 h 32.7 v -5.4 l -7.95,-0.75 -2.7,-2.4 v -42.3 c 0,-15 -7.05,-22.8 -20.1,-22.8 -6.45,0 -14.25,3.45 -24.3,9 V 88.6 Z" />
    <path
       id="path3830"
       style="font-style:normal;font-variant:normal;font-weight:normal;font-stretch:normal;font-size:150px;font-family:'Bitstream Charter';-inkscape-font-specification:'Bitstream Charter, Normal';font-variant-ligatures:normal;font-variant-caps:normal;font-variant-numeric:normal;font-feature-settings:normal;text-align:start;writing-mode:lr-tb;text-anchor:start"
       d="m 933.52188,92.8 c -4.80001,0 -8.70001,3.75 -8.70001,8.7 0,4.8 3.9,8.55 8.70001,8.55 4.79999,0 8.69999,-3.75 8.69999,-8.55 0,-4.8 -3.9,-8.7 -8.69999,-8.7 z m -0.60001,33.3 -17.25,5.4 v 4.65 h 10.5 v 54.3 l -2.54999,2.4 -7.95001,0.75 v 5.4 h 33.75 v -5.4 l -8.1,-0.75 -2.69999,-2.4 V 126.1 Z" />
  </g>
  <g
     id="e4_texte"
     style="font-style:normal;font-variant:normal;font-weight:bold;font-stretch:normal;font-size:204px;font-family:'Bitstream Charter';-inkscape-font-specification:'Bitstream Charter, Bold';font-variant-ligatures:normal;font-variant-caps:normal;font-variant-numeric:normal;font-feature-settings:normal;text-align:start;writing-mode:lr-tb;text-anchor:start;fill:#000000"
     aria-label="FUND">
    <path
       id="path3833"
       style="font-style:normal;font-variant:normal;font-weight:bold;font-stretch:normal;font-size:204px;font-family:'Bitstream Charter';-inkscape-font-specification:'Bitstream Charter, Bold';font-variant-ligatures:normal;font-variant-caps:normal;font-variant-numeric:normal;font-feature-settings:normal;text-align:start;writing-mode:lr-tb;text-anchor:start"
       d="m 412.26624,349.54935 h 60.18 v -9.996 l -14.28,-1.02 -3.468,-3.264 v -47.532 h 27.336 l 2.856,2.652 2.04,14.892 h 12.036 v -47.532 h -12.036 l -2.04,14.892 -2.856,2.652 h -27.336 v -50.796 h 39.372 l 2.652,2.652 3.06,19.788 h 14.076 v -34.272 h -102.408 v 9.996 l 13.056,1.02 3.264,2.856 v 108.732 l -3.264,3.264 -12.24,1.02 z" />
    <path
       id="path3835"
       style="font-style:normal;font-variant:normal;font-weight:bold;font-stretch:normal;font-size:204px;font-family:'Bitstream Charter';-inkscape-font-specification:'Bitstream Charter, Bold';font-variant-ligatures:normal;font-variant-caps:normal;font-variant-numeric:normal;font-feature-settings:normal;text-align:start;writing-mode:lr-tb;text-anchor:start"
       d="m 522.98405,212.66535 v 9.996 l 12.852,1.02 2.856,2.856 v 70.584 c 0,15.708 1.02,27.744 8.976,38.148 8.364,10.608 23.46,16.728 43.656,16.728 38.352,0 53.856,-16.524 53.856,-53.856 v -70.788 l 2.856,-3.468 12.444,-1.224 v -9.996 h -46.308 v 9.996 l 13.056,1.224 3.06,3.468 v 68.748 c 0,27.132 -8.364,39.78 -31.008,39.78 -24.48,0 -33.252,-11.628 -33.252,-37.944 v -71.4 l 2.856,-2.856 12.648,-1.02 v -9.996 z" />
    <path
       id="path3837"
       style="font-style:normal;font-variant:normal;font-weight:bold;font-stretch:normal;font-size:204px;font-family:'Bitstream Charter';-inkscape-font-specification:'Bitstream Charter, Bold';font-variant-ligatures:normal;font-variant-caps:normal;font-variant-numeric:normal;font-feature-settings:normal;text-align:start;writing-mode:lr-tb;text-anchor:start"
       d="m 668.04399,349.54935 h 46.512 v -9.792 l -12.648,-1.632 -3.264,-3.672 v -94.452 l 70.584,109.548 h 22.848 v -121.788 l 3.468,-3.876 12.036,-1.632 v -9.588 h -46.512 v 9.588 l 12.444,1.632 3.672,3.876 v 87.312 l -62.424,-96.9 v -5.508 h -46.92 v 9.996 l 13.056,1.02 2.856,2.856 v 107.916 l -3.672,3.672 -12.036,1.632 z" />
    <path
       id="path3839"
       style="font-style:normal;font-variant:normal;font-weight:bold;font-stretch:normal;font-size:204px;font-family:'Bitstream Charter';-inkscape-font-specification:'Bitstream Charter, Bold';font-variant-ligatures:normal;font-variant-caps:normal;font-variant-numeric:normal;font-feature-settings:normal;text-align:start;writing-mode:lr-tb;text-anchor:start"
       d="m 876.44274,212.66535 h -59.568 v 9.996 l 12.444,1.02 3.264,3.264 v 108.324 l -3.264,3.264 -12.444,1.02 v 9.996 h 59.568 c 20.4,0 35.7,-3.06 48.348,-12.852 16.524,-12.648 25.092,-31.416 25.092,-55.488 0,-42.84 -26.112,-68.544 -73.44,-68.544 z m -16.932,11.424 h 11.832 c 32.436,0 48.144,18.564 48.144,56.916 0,38.352 -15.708,57.12 -48.144,57.12 h -11.832 z" />
  </g>
</svg>
